<?xml version="1.0" encoding="UTF-8" standalone="no"?>
<!DOCTYPE svg PUBLIC "-//W3C//DTD SVG 1.1//EN" "http://www.w3.org/Graphics/SVG/1.1/DTD/svg11.dtd">
<svg width="100%" height="100%" viewBox="0 0 447 500" version="1.1" xmlns="http://www.w3.org/2000/svg" xmlns:xlink="http://www.w3.org/1999/xlink" xml:space="preserve" xmlns:serif="http://www.serif.com/" style="fill-rule:evenodd;clip-rule:evenodd;stroke-miterlimit:10;">
    <g transform="matrix(1,0,0,1,-37.994676,-5)">
        <path d="M261,74L412.554,159L412.554,329L261,414L109.446,329L109.446,159L261,74Z" style="fill-opacity:0;"/>
        <clipPath id="_clip1">
            <path d="M261,74L412.554,159L412.554,329L261,414L109.446,329L109.446,159L261,74Z"/>
        </clipPath>
        <g clip-path="url(#_clip1)">
            <g transform="matrix(1,0,0,1,136.175,115.065)">
                <path d="M124.98,255.99L124.98,28.99" style="fill:none;fill-rule:nonzero;stroke:rgb(0,17,52);stroke-width:10px;"/>
                <path d="M224.09,31.91L25.72,31.91" style="fill:none;fill-rule:nonzero;stroke:rgb(0,17,52);stroke-width:10px;"/>
                <path d="M124.98,5.59L124.98,274.28" style="fill:none;fill-rule:nonzero;stroke:rgb(0,17,52);stroke-width:0.5px;"/>
                <circle cx="124.98" cy="5.59" r="5.09" style="fill:rgb(17,24,39);stroke:rgb(0,17,52);stroke-width:1px;"/>
                <circle cx="124.98" cy="274.28" r="5.09" style="fill:rgb(17,24,39);stroke:rgb(0,17,52);stroke-width:1px;"/>
                <g transform="matrix(1,0,0,1,-243.49,-146.63)">
                    <path d="M368.48,369.62C324.319,369.62 287.98,333.281 287.98,289.12" style="fill:none;fill-rule:nonzero;stroke:rgb(0,17,52);stroke-width:10px;"/>
                </g>
                <g transform="matrix(1,0,0,1,-243.49,-146.63)">
                    <path d="M368.48,208.62C412.644,208.623 448.984,244.966 448.984,289.13C448.984,322.662 428.036,352.838 396.62,364.56" style="fill:none;fill-rule:nonzero;stroke:rgb(0,17,52);stroke-width:10px;"/>
                </g>
                <g transform="matrix(1,0,0,1,-243.49,-146.63)">
                    <path d="M288,289.12C287.996,255.724 308.769,225.639 340,213.81" style="fill:none;fill-rule:nonzero;stroke:rgb(0,17,52);stroke-width:10px;"/>
                </g>
                <path d="M242.69,204.19L205.48,142.49" style="fill:none;fill-rule:nonzero;stroke:rgb(0,17,52);stroke-width:0.5px;"/>
                <path d="M6.96,68.61L242.69,204.19" style="fill:none;fill-rule:nonzero;stroke:rgb(0,17,52);stroke-width:0.5px;"/>
                <g transform="matrix(0.731691,-0.681637,0.177322,0.190344,68.654933,259.454952)">
                    <path d="M124.98,255.99L124.98,28.99" style="fill:none;fill-rule:nonzero;stroke:rgb(0,17,52);stroke-width:13.49px;"/>
                </g>
                <path d="M44.48,142.49L6.96,68.61" style="fill:none;fill-rule:nonzero;stroke:rgb(0,17,52);stroke-width:0.5px;"/>
                <path d="M205.48,57L38.14,221.74" style="fill:none;fill-rule:nonzero;stroke:rgb(0,17,52);stroke-width:0.5px;"/>
                <circle cx="6.96" cy="68.61" r="6.46" style="fill:rgb(17,24,39);stroke:rgb(0,17,52);stroke-width:1px;"/>
                <circle cx="242.69" cy="204.19" r="6.46" style="fill:rgb(17,24,39);stroke:rgb(0,17,52);stroke-width:1px;"/>
                <circle cx="205.48" cy="57" r="3.86" style="fill:rgb(17,24,39);stroke:rgb(0,17,52);stroke-width:1px;"/>
                <circle cx="38.12" cy="221.76" r="3.86" style="fill:rgb(17,24,39);stroke:rgb(0,17,52);stroke-width:1px;"/>
            </g>
        </g>
        <path d="M261,74L412.554,159L412.554,329L261,414L109.446,329L109.446,159L261,74Z" style="fill:none;stroke:rgb(0,17,52);stroke-width:10px;stroke-linecap:round;stroke-miterlimit:1.5;"/>
    </g>
</svg>
